<?xml version="1.0" encoding="UTF-8" standalone="no"?>
<svg
   width="16"
   height="16"
   viewBox="0 0 16 16"
   version="1.1"
   id="svg1"
   sodipodi:docname="icon_16d.svg"
   inkscape:version="1.4 (e7c3feb100, 2024-10-09)"
   xmlns:inkscape="http://www.inkscape.org/namespaces/inkscape"
   xmlns:sodipodi="http://sodipodi.sourceforge.net/DTD/sodipodi-0.dtd"
   xmlns="http://www.w3.org/2000/svg"
   xmlns:svg="http://www.w3.org/2000/svg">
  <sodipodi:namedview
     id="namedview1"
     pagecolor="#ffffff"
     bordercolor="#ffffff"
     borderopacity="1"
     inkscape:showpageshadow="0"
     inkscape:pageopacity="0"
     inkscape:pagecheckerboard="1"
     inkscape:deskcolor="#505050"
     inkscape:document-units="px"
     inkscape:zoom="52.6875"
     inkscape:cx="7.8007117"
     inkscape:cy="6.0830368"
     inkscape:window-width="1782"
     inkscape:window-height="1052"
     inkscape:window-x="138"
     inkscape:window-y="0"
     inkscape:window-maximized="1"
     inkscape:current-layer="layer1"
     inkscape:export-bgcolor="#ffffff00"
     showgrid="false" />
  <defs
     id="defs1" />
  <g
     inkscape:label="Layer 1"
     inkscape:groupmode="layer"
     id="layer1">
    <text
       xml:space="preserve"
       style="font-size:21.7074px;text-align:start;writing-mode:lr-tb;direction:ltr;text-anchor:start;fill:#000000;stroke-width:1.62807"
       x="-2.3352139"
       y="19.777979"
       id="text1"
       transform="scale(1.6398235,0.60982174)"><tspan
         sodipodi:role="line"
         id="tspan1"
         x="-2.3352139"
         y="19.777979"
         style="stroke-width:1.62807" /></text>
    <path
       d="m 10.521191,11.770183 q 0.582153,1.314662 0.582153,2.153543 0,0.66359 -0.717989,1.089291 -0.7179878,0.4257 -1.7464572,0.4257 -0.970254,0 -1.6882421,-0.375618 -0.7179881,-0.363096 -0.7179881,-0.888963 0,-0.375616 0.3881017,-0.713672 0.4075067,-0.325537 0.9702541,-0.325537 0.5821525,0 0.931444,0.262933 0.3686965,0.275453 0.3686965,0.626028 0,0.776278 -1.3583557,0.776278 0.3492914,0.350577 1.1254947,0.350577 0.2910762,0 0.5821525,-0.06261 0.3104813,-0.05008 0.6403678,-0.187809 0.3298868,-0.137728 0.5239368,-0.438221 0.213456,-0.287975 0.213456,-0.701153 0,-0.262932 -0.543342,-1.890612 -0.4269119,0.07513 -1.0672795,0.07513 -1.8822931,0 -3.2406488,-0.901483 -1.3389507,-0.90148 -1.3389507,-2.1535397 0,-0.4382208 0.2134559,-0.8889622 Q 4.8743119,7.5507416 5.1459831,7.2126855 5.4370593,6.8621089 5.9804015,6.4364086 6.5431489,5.9981877 6.9118456,5.7477758 7.2999471,5.4848434 7.9791251,5.0466225 7.5328082,4.0199338 7.5328082,3.1685331 q 0,-1.1268535 0.6403677,-1.8780892 0.6403677,-0.76375636 1.2807355,-0.76375636 0.1940507,0 0.4269118,0.16276774 0.2522658,0.16276774 0.4851268,0.45074142 0.232861,0.2879737 0.388102,0.7637562 0.174645,0.4632622 0.174645,1.0016478 0,1.9907747 -2.1927737,3.2929166 l 0.5045321,1.4774303 q 0.3104813,-0.037561 0.5627474,-0.037561 1.1837102,0 1.9987232,0.6260297 0.815013,0.6135094 0.815013,1.5024715 0,1.4774302 -2.095748,2.0032952 z M 10.36595,2.4548593 q 0,-0.688633 -0.6209624,-0.688633 -0.698583,0 -1.18371,0.6635917 -0.4851271,0.6635917 -0.4851271,1.4774303 0,0.5258651 0.252266,0.9140035 Q 9.0658097,4.5332781 9.7061773,3.794563 10.36595,3.0433272 10.36595,2.4548593 Z m 1.397166,7.7377277 q 0,-0.6886324 -0.620963,-1.1018121 Q 10.521191,8.6775952 9.5315316,8.6775952 L 10.40476,11.507249 q 1.358356,-0.363097 1.358356,-1.314662 z M 9.9972536,11.582373 9.1046198,8.7026365 Q 8.5806826,8.7777602 8.1343657,9.115816 7.7074539,9.4538721 7.7074539,9.8169693 q 0,0.1878087 0.1164311,0.3756177 0.1164312,0.175289 0.2716712,0.300495 0.1746457,0.125205 0.3492915,0.225371 0.1746458,0.10017 0.2910762,0.150246 0.1164311,0.03756 0.1164311,0.03756 l -0.1552408,0.06261 Q 8.0567454,10.85618 7.4745929,10.46804 6.9118456,10.079902 6.9118456,9.491434 q 0,-0.5884681 0.5627473,-1.0767712 0.5821525,-0.500824 1.2807355,-0.6635917 L 8.4060369,6.4113673 q -3.046598,1.640198 -3.046598,3.1677109 0,0.9140038 1.0672795,1.5275128 1.0672797,0.613509 2.4256354,0.613509 0.3298864,0 1.1448998,-0.137727 z"
       id="text2"
       style="font-size:13.3413px;stroke-width:1.16904"
       fill="black"
       aria-label="𝄞" />
  </g>
</svg>
